# xmcd CD database file
#
# Track frame offsets:
#	150
#	18480
#	40500
#
# Disc length: 784 seconds
#
# Revision: 0
# Processed by: cddbd v1.5PL3 Copyright (c) Steve Scherf et al.
# Submitted via: CDex 1.51
#
DISCID=17030e03
DTITLE=HIM - BECAUSE OF LOVE
DYEAR=1995
DGENRE=JPop
TTITLE0=BECAUSE OF LOVE (ORIGINAL MIX)
TTITLE1=BECAUSE OF LOVE (SHOWCASE MIX)
TTITLE2=BECAUSE OF LOVE (ORIGINAL KARAOKE)
EXTD=YEAR: 1995
EXTT0=
EXTT1=
EXTT2=
PLAYORDER=
